<svg id="ePSVHWJFIfi1" xmlns="http://www.w3.org/2000/svg" xmlns:xlink="http://www.w3.org/1999/xlink" viewBox="0 0 86 76" shape-rendering="geometricPrecision" text-rendering="geometricPrecision"><style><![CDATA[#ePSVHWJFIfi4_tr {animation: ePSVHWJFIfi4_tr__tr 1000ms linear 2 normal forwards}@keyframes ePSVHWJFIfi4_tr__tr { 0% {transform: translate(50.6206px,70.502656px) rotate(0deg);animation-timing-function: cubic-bezier(0.15,0.395,0.445,1.48)} 40% {transform: translate(50.6206px,70.502656px) rotate(-21.656591deg)} 60% {transform: translate(50.6206px,70.502656px) rotate(0deg)} 100% {transform: translate(50.6206px,70.502656px) rotate(0deg)}}]]></style><defs><linearGradient id="ePSVHWJFIfi3-fill" x1="20.0036" y1="0" x2="20.0036" y2="75.3078" spreadMethod="pad" gradientUnits="userSpaceOnUse" gradientTransform="translate(0 0)"><stop id="ePSVHWJFIfi3-fill-0" offset="0%" stop-color="#bad2fd"/><stop id="ePSVHWJFIfi3-fill-1" offset="100%" stop-color="#4a8bfa"/></linearGradient><linearGradient id="ePSVHWJFIfi5-fill" x1="68.4797" y1="-10.4902" x2="68.4797" y2="83.5333" spreadMethod="pad" gradientUnits="userSpaceOnUse" gradientTransform="translate(0 0)"><stop id="ePSVHWJFIfi5-fill-0" offset="0%" stop-color="#fdcbab"/><stop id="ePSVHWJFIfi5-fill-1" offset="100%" stop-color="#fa904a"/></linearGradient></defs><g><path d="M30.5938,0c-4.3978,0-8.0456,3.01526-9.0899,7.08953-.1176,0-.2059-.02942-.3236-.02942-5.1921,0-9.4134,4.22139-9.4134,9.41349c0,.706.0882,1.3973.25,2.0592-4.2949,1.765-7.31016,5.9717-7.31016,10.8843c0,1.8533.47067,3.5742,1.22081,5.1333C2.3975,36.5802,0,40.3456,0,44.714c0,4.898,3.00055,9.1046,7.26603,10.8697-.13238.6766-.20592,1.3679-.20592,2.0739c0,5.854,4.73619,10.5901,10.59019,10.5901.603,0,1.1914-.0735,1.765-.1765c1.412,4.192,5.3245,7.2366,10.0018,7.2366c5.854,0,10.5902-4.7361,10.5902-10.5901v-55.30422C40.0073,4.22136,35.7859,0,30.5938,0Z" fill="url(#ePSVHWJFIfi3-fill)"/></g><g id="ePSVHWJFIfi4_tr" transform="translate(50.6206,70.502656) rotate(0)"><g transform="translate(-50.6206,-70.502656)"><path d="M52.4215,64.2472c-.9946,0-1.8009-.8063-1.8009-1.8009v-53.29442c0-.99461.8063-1.8009,1.8009-1.8009h7.4569c.9946,0,1.8009.80629,1.8009,1.8009v43.59802c0,.9946.8063,1.8009,1.8009,1.8009h20.0045c.9946,0,1.8009.8063,1.8009,1.8009v6.0946c0,.9946-.8063,1.8009-1.8009,1.8009h-31.0632Z" transform="translate(-.21686 0)" fill="url(#ePSVHWJFIfi5-fill)"/></g></g></svg>