<?xml version="1.0" standalone="no"?>
<!DOCTYPE svg PUBLIC "-//W3C//DTD SVG 20010904//EN"
 "http://www.w3.org/TR/2001/REC-SVG-20010904/DTD/svg10.dtd">
<svg version="1.0" xmlns="http://www.w3.org/2000/svg"
 width="2048.000000pt" height="2048.000000pt" viewBox="0 0 2048.000000 2048.000000"
 preserveAspectRatio="xMidYMid meet">
<metadata>
Created by potrace 1.11, written by Peter Selinger 2001-2013
</metadata>
<g transform="translate(0.000000,2048.000000) scale(0.100000,-0.100000)"
fill="#000000" stroke="none">
<path d="M7907 17464 c-1 -1 -44 -5 -96 -9 -52 -3 -97 -8 -100 -10 -3 -1 -24
-6 -46 -9 -312 -50 -653 -218 -894 -440 -212 -197 -340 -382 -470 -681 -8 -18
-59 -173 -66 -201 -2 -7 -39 -11 -102 -12 -109 -1 -159 -7 -338 -37 -44 -7
-150 -37 -231 -66 -487 -172 -884 -553 -1078 -1034 -36 -88 -89 -266 -100
-335 -3 -19 -8 -48 -11 -65 -29 -179 -24 -430 11 -593 9 -40 15 -75 13 -77 -2
-1 -49 -24 -104 -51 -250 -119 -495 -297 -676 -489 -92 -99 -103 -111 -161
-190 -33 -44 -65 -87 -72 -95 -6 -9 -35 -54 -63 -100 -118 -197 -197 -382
-252 -590 -54 -202 -75 -375 -75 -595 0 -162 7 -231 40 -412 24 -131 106 -382
167 -511 l25 -54 -131 -88 c-73 -48 -141 -96 -152 -107 -11 -10 -45 -39 -75
-65 -71 -59 -131 -118 -200 -194 -84 -93 -99 -112 -167 -209 -35 -49 -67 -95
-73 -102 -5 -7 -10 -15 -10 -17 0 -3 -15 -29 -33 -58 -104 -167 -240 -533
-262 -709 -2 -15 -6 -36 -9 -46 -2 -10 -7 -45 -11 -78 -3 -33 -8 -80 -11 -105
-7 -58 -7 -297 0 -374 11 -121 47 -330 66 -386 4 -14 16 -52 25 -85 46 -159
151 -388 248 -543 111 -178 324 -421 469 -537 35 -27 65 -52 68 -55 6 -8 139
-102 161 -115 150 -87 319 -175 337 -175 18 0 22 -15 12 -51 -5 -19 -12 -61
-15 -94 -4 -33 -9 -76 -11 -95 -5 -46 -5 -309 0 -335 2 -11 7 -53 10 -94 4
-41 9 -77 11 -80 1 -3 6 -22 9 -41 16 -101 73 -299 113 -390 138 -313 285
-523 519 -740 27 -25 69 -61 94 -80 25 -19 47 -37 50 -40 15 -19 218 -145 295
-184 136 -70 332 -143 460 -172 32 -7 177 -34 215 -39 82 -13 398 -12 480 1
111 17 120 17 127 -3 52 -151 134 -315 229 -459 40 -62 79 -118 86 -125 7 -8
31 -36 53 -64 80 -100 226 -238 345 -326 69 -51 254 -169 265 -169 2 0 44 -20
93 -43 85 -42 308 -121 375 -132 17 -4 52 -11 77 -16 125 -28 243 -37 435 -34
179 3 242 9 400 40 161 32 458 150 610 243 343 209 608 498 783 854 81 166
155 387 175 523 3 17 8 46 11 65 4 19 9 51 12 70 4 19 7 2508 8 5530 2 5465 2
5565 -27 5710 -62 307 -195 585 -389 817 -66 79 -102 115 -218 223 -79 74
-248 184 -385 250 -111 54 -295 122 -362 135 -15 2 -39 7 -53 10 -125 25 -234
37 -368 39 -46 1 -84 1 -85 0z"/>
<path d="M11228 15686 c-123 -33 -223 -143 -245 -272 -5 -27 -8 -2352 -8
-5214 1 -5411 0 -5202 42 -5284 38 -74 132 -148 218 -171 39 -11 6098 -14
6148 -3 130 29 236 134 265 266 5 21 9 328 8 683 l-1 644 -27 57 c-49 102
-128 172 -228 198 -34 10 -511 13 -2035 14 -2154 2 -2016 -1 -2100 57 -70 47
-120 114 -145 192 -9 29 -12 988 -12 4292 0 4479 2 4289 -41 4371 -31 60 -88
113 -155 146 l-67 33 -785 2 c-610 1 -795 -1 -832 -11z"/>
</g>
</svg>
