<?xml version="1.0" standalone="no"?>
<!DOCTYPE svg PUBLIC "-//W3C//DTD SVG 20010904//EN"
 "http://www.w3.org/TR/2001/REC-SVG-20010904/DTD/svg10.dtd">
<svg version="1.0" xmlns="http://www.w3.org/2000/svg"
 width="700.000000pt" height="700.000000pt" viewBox="0 0 700.000000 700.000000"
 preserveAspectRatio="xMidYMid meet">
<metadata>
Created by potrace 1.11, written by Peter Selinger 2001-2013
</metadata>
<g transform="translate(0.000000,700.000000) scale(0.100000,-0.100000)"
fill="#000000" stroke="none">
<path d="M5644 6549 c-37 -13 -51 -47 -123 -289 -45 -150 -80 -253 -92 -265
-21 -21 -39 -22 -429 -14 -69 2 -135 -1 -148 -5 -21 -7 -50 -50 -47 -71 5 -48
13 -55 344 -279 110 -76 135 -108 121 -155 -8 -24 -101 -291 -147 -421 -29
-81 -15 -130 42 -144 38 -10 76 12 210 122 6 5 68 52 139 105 90 69 136 97
155 97 20 0 68 -30 167 -105 76 -58 147 -113 157 -121 91 -75 140 -104 170
-99 41 8 47 12 62 48 14 33 15 28 -108 377 -52 148 -59 189 -37 216 6 6 41 32
78 57 37 25 110 76 162 112 52 37 113 79 135 93 57 38 75 61 75 97 0 64 -39
83 -160 79 -41 -2 -155 -5 -253 -7 -171 -5 -179 -4 -203 16 -20 18 -40 73 -98
270 -40 136 -81 256 -90 266 -20 22 -55 31 -82 20z"/>
<path d="M2220 5164 c-88 -17 -136 -35 -201 -77 -97 -63 -188 -174 -224 -272
-10 -27 -21 -53 -25 -58 -3 -4 -31 -10 -61 -12 -143 -13 -258 -66 -358 -164
-66 -65 -103 -124 -140 -220 -21 -56 -25 -84 -26 -189 -1 -134 1 -128 -65
-158 -34 -16 -138 -95 -171 -131 -94 -101 -167 -241 -186 -361 -10 -56 -9
-213 0 -263 3 -20 18 -69 33 -109 14 -39 24 -73 22 -74 -2 -2 -23 -17 -48 -33
-318 -217 -400 -660 -182 -981 70 -102 180 -197 283 -244 36 -16 36 -17 29
-58 -20 -112 9 -273 73 -395 45 -85 173 -211 263 -258 99 -51 213 -77 320 -72
l84 4 28 -57 c76 -151 166 -243 308 -315 194 -98 461 -77 639 51 88 64 141
123 207 232 22 37 56 140 64 196 9 62 10 3473 1 3534 -20 138 -68 233 -167
331 -132 131 -318 188 -500 153z"/>
<path d="M3848 5175 c-2 -1 -26 -5 -54 -8 -61 -6 -173 -49 -231 -88 -109 -75
-199 -202 -232 -329 -19 -73 -20 -125 -20 -1815 -1 -1215 2 -1759 10 -1800 23
-128 88 -252 176 -338 78 -75 94 -87 178 -127 326 -157 707 -19 860 312 l24
53 103 1 c57 1 114 4 128 8 14 3 39 9 55 12 17 4 55 18 85 32 244 113 389 350
379 621 -3 76 -1 95 11 102 201 106 319 240 384 434 25 74 31 119 30 235 -2
181 -60 322 -194 473 -25 29 -131 112 -150 119 -6 2 -1 28 15 67 79 203 58
431 -58 621 -69 114 -187 222 -299 273 -33 16 -36 20 -31 50 29 185 -36 376
-174 509 -86 83 -230 146 -348 152 l-58 3 -17 44 c-72 190 -216 320 -409 369
-40 10 -156 21 -163 15z"/>
</g>
</svg>
