<svg width="640" height="512" viewBox="-10 10 660 532" fill="none" xmlns="http://www.w3.org/2000/svg">

  <linearGradient id="MyGradient" x1="0%" y1="0%" x2="0%" y2="100%">
    <stop offset="5%" stop-color="orange" stop-opacity="100%"/>
    <stop offset="95%" stop-color="orange" stop-opacity="60%"/>
  </linearGradient>

  <filter id="f4" x="0" y="0" width="200%" height="200%">
    <feOffset result="offOut" in="SourceGraphic" dx="0" dy="0" />
    <!--      <feColorMatrix in="SourceGraphic" type="luminanceToAlpha" result="matrixOut"/>-->
    <!--      <feColorMatrix id="recolor"  type="matrix" values="0 0 0 0 1 0 0 0 0 1 0 0 0 0 1 0 0 0 1 0" result="white-glow"/>-->

    <feColorMatrix result="matrixOut" in="offOut" type="matrix"
                   values="1 0 0 0  0 0 1 0 0 0 0 0 1 0 0 0 0 0 1 0" />
    <feGaussianBlur result="blurOut" in="matrixOut" stdDeviation="20" />
    <feBlend in="SourceGraphic" in2="blurOut" mode="normal" />
  </filter>

  <path
    filter="url(#f4)"
    d="M544 192C544 204.2 541.7 215.9 537.6 226.6C596 238.4 640 290.1 640 352C640 422.7 582.7 480 512 480H144C64.5 480 0 415.5 0 336C0 273.2 40.2 219.8 96.2 200.1C96.1 197.4 96 194.7 96 192C96 103.6 167.6 32 256 32C315.3 32 367 64.2 394.7 112.2C409.9 102 428.3 96 448 96C501 96 544 139 544 192Z"
    fill="url(#MyGradient)"/>
</svg>
