<svg width="640" height="512" viewBox="0 0 640 512" fill="none" xmlns="http://www.w3.org/2000/svg">
<path d="M290.175 208.741L189.45 323.853C177.563 337.441 187.224 358.695 205.264 358.695H406.714C410.752 358.698 414.705 357.538 418.1 355.353C421.495 353.167 424.188 350.05 425.857 346.373C427.525 342.697 428.099 338.617 427.509 334.623C426.919 330.629 425.19 326.889 422.529 323.853L321.804 208.762C319.833 206.506 317.402 204.698 314.674 203.46C311.946 202.221 308.985 201.58 305.989 201.58C302.994 201.58 300.033 202.221 297.305 203.46C294.577 204.698 292.146 206.506 290.175 208.762V208.741Z" fill="black" fill-opacity="0.3"/>
</svg>
